<svg width="6" height="10" viewBox="0 0 6 10" fill="none" xmlns="http://www.w3.org/2000/svg">
<path fill-rule="evenodd" clip-rule="evenodd" d="M0.241931 0.471448C0.366934 0.346444 0.536476 0.276218 0.713257 0.276218C0.890039 0.276218 1.05958 0.346444 1.18458 0.471448L4.95519 4.24205C5.08019 4.36706 5.15042 4.5366 5.15042 4.71338C5.15042 4.89016 5.08019 5.0597 4.95519 5.1847L1.18458 8.95531C1.05958 9.08031 0.890039 9.15054 0.713257 9.15054C0.536476 9.15054 0.366934 9.08031 0.241931 8.95531C0.116928 8.83031 0.0467018 8.66077 0.046702 8.48398C0.0467018 8.3072 0.116928 8.13766 0.241931 8.01266L3.54121 4.71338L0.241931 1.4141C0.116928 1.2891 0.0467018 1.11955 0.046702 0.942773C0.0467018 0.765992 0.116928 0.596451 0.241931 0.471448Z" fill="#FFC01F"/>
</svg>
